<svg width="70.000000" height="70.000000" viewBox="0 0 70 70" fill="none" xmlns="http://www.w3.org/2000/svg" xmlns:xlink="http://www.w3.org/1999/xlink">
	<desc>
			Created with Pixso.
	</desc>
	<defs/>
	<circle id="bg" cx="35.000000" cy="35.000000" r="35.000000" fill="#0D50FF" fill-opacity="1.000000"/>
	<path id="Vector" d="M33.44 21.05L37.55 21.05M49.88 35.44C48.51 46.4 45.09 51.88 39.61 51.88L31.38 51.88C25.9 51.88 22.48 46.4 21.11 35.44" stroke="#FFFFFF" stroke-opacity="1.000000" stroke-width="4.111142" stroke-linejoin="round" stroke-linecap="round"/>
	<path id="Vector" d="M35.5 45.72C37.55 45.72 37.55 45.03 37.55 43.66L33.44 43.66C33.44 45.03 34.12 45.72 35.5 45.72ZM35.5 47.77L35.5 51.88M31.38 33.38L31.38 33.4M39.61 33.38L39.61 33.4M33.44 20.99L20.62 34.74C20.26 35.14 19.75 35.39 19.21 35.43C18.67 35.48 18.14 35.31 17.72 34.96C17.43 34.73 17.22 34.43 17.1 34.08C16.98 33.73 16.96 33.36 17.05 33L21.11 19L33.44 20.99ZM37.55 20.99L50.37 34.74C51.11 35.58 52.41 35.68 53.27 34.96C53.56 34.73 53.77 34.43 53.89 34.08C54.01 33.73 54.03 33.36 53.94 33L49.88 19L37.55 20.99Z" stroke="#FFFFFF" stroke-opacity="1.000000" stroke-width="4.111142" stroke-linejoin="round" stroke-linecap="round"/>
</svg>
