<svg width="44.000000" height="44.000000" viewBox="0 0 44 44" fill="none" xmlns="http://www.w3.org/2000/svg" xmlns:xlink="http://www.w3.org/1999/xlink">
	<desc>
			Created with Pixso.
	</desc>
	<defs>
		<clipPath id="clip1_363">
			<rect id="ic-whatsapp" rx="0.000000" width="43.119999" height="43.119999" transform="translate(0.440000 0.440000)" fill="white" fill-opacity="0"/>
		</clipPath>
	</defs>
	<rect id="ic-whatsapp" rx="0.000000" width="43.119999" height="43.119999" transform="translate(0.440000 0.440000)" fill="#FFFFFF" fill-opacity="0"/>
	<g clip-path="url(#clip1_363)">
		<path id="Vector" d="M21.95 3C11.48 3 2.95 11.52 2.95 22C2.95 25.68 4.01 29.24 6.02 32.32L3.06 39.23C2.85 39.7 2.96 40.26 3.33 40.62C3.57 40.87 3.89 41 4.22 41C4.39 41 4.56 40.96 4.72 40.89L11.63 37.93C14.71 39.94 18.27 41 21.95 41C32.43 41 40.95 32.47 40.95 22C40.95 11.52 32.43 3 21.95 3ZM31.71 28.8C31.71 28.8 30.13 30.82 28.98 31.3C26.08 32.5 21.99 31.3 17.32 26.63C12.65 21.96 11.45 17.87 12.65 14.96C13.13 13.82 15.15 12.24 15.15 12.24C15.7 11.81 16.56 11.87 17.05 12.36L19.34 14.65C19.83 15.14 19.83 15.95 19.34 16.44L17.9 17.88C17.9 17.88 17.32 19.63 20.82 23.13C24.32 26.63 26.07 26.05 26.07 26.05L27.51 24.61C28 24.12 28.8 24.12 29.3 24.61L31.59 26.9C32.08 27.39 32.13 28.25 31.71 28.8Z" fill="#282828" fill-opacity="1.000000" fill-rule="nonzero"/>
	</g>
</svg>
